<?xml version="1.0" encoding="utf-8"?>
<!DOCTYPE svg PUBLIC "-//W3C//DTD SVG 1.1//EN" "http://www.w3.org/Graphics/SVG/1.1/DTD/svg11.dtd">
<svg version="1.1" xmlns="http://www.w3.org/2000/svg" xmlns:xlink="http://www.w3.org/1999/xlink" x="0px" y="0px"
	 width="8.504px" height="11.339px" viewBox="0 0 8.504 11.339" enable-background="new 0 0 8.504 11.339" xml:space="preserve">
<path fill-rule="evenodd" clip-rule="evenodd" d="M1.455,10.152c-0.031,0.045-0.113,0.887,0.037,0.93
	c0.506,0.019,5.178,0.038,5.204-0.022c0.234-0.558-0.49-1.657-0.838-2.059c-0.143-0.163-0.1,0.235-0.495,0.416
	C4.766,9.689,4.657,9.006,4.526,9.376C4.009,10.835,2.018,9.923,1.455,10.152z"/>
<path fill-rule="evenodd" clip-rule="evenodd" d="M5.537,7.955c-0.405,0.436-0.1,0.083,0.17,0.494
	c0.051,0.109,0.034,0.231,0.07,0.303C5.981,8.755,6.678,8,6.814,7.748c0.79-1.434,0.601-2.981-0.489-4.187
	c-0.362-0.4-0.005,0.162-0.547,0.747c-0.621,0.669-0.65-0.136,0.045,0.946C6.423,6.187,6.21,7.141,5.537,7.955z"/>
<path fill-rule="evenodd" clip-rule="evenodd" d="M2.579,5.266c0.043,0.269,0.853,0.87,1.161,0.237
	c0.829-1.716,0.354-0.752,0.145-1.764C3.732,3.002,4.318,2.389,5.044,2.393C5.19,2.394,5.219,2.2,5.295,2.049
	C5.576,1.494,5.271,1.53,5.339,1.36c0.063-0.156,0.439-0.779,0.259-0.957C5.39,0.2,5.084,0.148,4.94,0.455
	C4.888,0.567,4.661,1.092,4.612,1.111C4.239,1.254,4.294,1.274,4.145,1.637C3.788,2.509,2.613,4.816,2.579,5.266z"/>
<path fill-rule="evenodd" clip-rule="evenodd" d="M1.507,6.408c-0.096-0.042-0.101,0.04-0.159,0.175L1.218,6.861
	c-0.01,0.025-0.006,0.011-0.012,0.035c0.231,0.156,2.007,0.954,2.057,0.904c0.094-0.094,0.217-0.13,0.124,0.1
	C3.075,8.665,3.215,8.179,2.609,7.906c-0.188-0.084-1.134-0.661-1.205-0.24C1.361,7.921,2.312,8.28,2.538,8.372
	C2.667,8.424,3.133,8.405,3.1,8.518c-0.051,0.18-0.157,0.27,0.106,0.439c0.177,0.115,1.168,0.325,1.297,0.197
	C4.522,9.136,4.43,8.865,4.445,8.693C4.468,8.415,4.39,8.585,4.06,8.562C3.907,8.551,4.09,8.275,4.148,8.128
	C4.38,7.537,4.391,7.691,3.936,7.474C3.361,7.197,3.775,7.605,3.439,7.485c0.013-0.237,0.168-0.114-0.417-0.388
	C2.535,6.87,2,6.62,1.507,6.408z"/>
<path fill-rule="evenodd" clip-rule="evenodd" fill="#EFEEEC" d="M4.032,8.538l0.003-0.003C4.034,8.536,4.031,8.537,4.032,8.538z"/>
<circle fill-rule="evenodd" clip-rule="evenodd" fill="none" stroke="#000000" stroke-width="0.4799" stroke-miterlimit="22.9256" cx="4.992" cy="3.518" r="0.718"/>
<circle fill-rule="evenodd" clip-rule="evenodd" fill="none" stroke="#000000" stroke-width="0.2398" stroke-miterlimit="22.9256" cx="5.12" cy="8.796" r="0.413"/>
</svg>
