<?xml version="1.0" encoding="utf-8"?>
<!DOCTYPE svg PUBLIC "-//W3C//DTD SVG 1.1//EN" "http://www.w3.org/Graphics/SVG/1.1/DTD/svg11.dtd">
<svg version="1.1" id="_x31_" xmlns="http://www.w3.org/2000/svg" xmlns:xlink="http://www.w3.org/1999/xlink" x="0px" y="0px"
	 width="12.756px" height="11.339px" viewBox="0 0 12.756 11.339" enable-background="new 0 0 12.756 11.339" xml:space="preserve">
<g>
	<path fill-rule="evenodd" clip-rule="evenodd" d="M0.643,9.578h11.372c0,0.507-0.109,0.961-0.721,0.961H1.284
		C0.923,10.539,0.654,9.982,0.643,9.578L0.643,9.578z M0.884,3.012v5.926H0.163c0,0.795-0.167,1.581,0.578,1.985
		C1.309,11.231,2.514,11.1,3.206,11.1c2.134,0,6.158,0.082,8.009,0.001c1.022-0.045,1.415-0.643,1.392-1.566
		c-0.016-0.625,0.146-0.597-0.752-0.597V5.814c0-0.347-0.641-0.347-0.641,0v3.123H1.524V2.852h2.482V2.211
		c-0.979,0-2.353-0.162-2.814,0.229L1,2.648C0.907,2.792,0.884,2.801,0.884,3.012z"/>
	<path fill-rule="evenodd" clip-rule="evenodd" d="M9.244,4.959C8.995,5.197,7.647,6.685,7.477,6.69
		C7.441,6.692,7.406,6.693,7.37,6.695c0-0.614,0-1.228,0-1.842C7.075,4.841,6.029,4.632,6.22,5.245
		c0.083,0.266,0.453,0.18,0.67,0.169c0,0.588,0,1.175,0,1.762c0.782,0.332,0.558,0.389,1.388-0.468
		C10.058,4.87,9.441,5.501,11.6,5.42c0.403-0.016,0.874-0.39,0.962-0.714c0.039-0.403,0.056-3.654-0.024-3.882
		c-0.287-0.816-1.384-0.617-2.069-0.617c-1.647-0.001-3.293-0.01-4.94-0.001C4.147,0.214,4.352,0.606,4.36,1.887
		c0.003,0.559,0.014,1.118,0.017,1.676c0.69,0.014,0.503,0.162,0.516-0.775C4.897,2.46,4.809,0.981,4.999,0.801
		c0.216-0.204,2.22-0.112,2.616-0.112c0.589,0,3.688-0.063,4.003,0.061c0.529,0.207,0.418,0.974,0.433,1.478
		c0.011,0.434,0.09,2.17-0.195,2.462C11.402,5.157,9.873,4.629,9.244,4.959z"/>
	<path fill-rule="evenodd" clip-rule="evenodd" d="M2.165,8.377v0.4c0.753,0,0.64,0.032,0.64-0.641
		c0.138-0.072-0.003,0.006,0.148-0.093l0.56-0.32c0.974-0.449,2.462-0.091,2.734,0.494c0.222,0.479-0.182,0.56,0.642,0.56
		c0-0.924-0.034-1.23-1.418-1.704C4.691,6.806,4.018,6.92,3.302,7.192C2.808,7.38,2.165,7.759,2.165,8.377z"/>
	<rect x="5.769" y="9.818" fill-rule="evenodd" clip-rule="evenodd" width="1.361" height="0.48"/>

		<circle fill-rule="evenodd" clip-rule="evenodd" fill="none" stroke="#000000" stroke-width="0.5159" stroke-miterlimit="22.9256" cx="4.579" cy="5.249" r="1.188"/>

		<line fill-rule="evenodd" clip-rule="evenodd" fill="none" stroke="#000000" stroke-width="0.5159" stroke-linecap="round" stroke-miterlimit="22.9256" x1="6.364" y1="2.098" x2="10.576" y2="2.098"/>

		<line fill-rule="evenodd" clip-rule="evenodd" fill="none" stroke="#000000" stroke-width="0.5162" stroke-linecap="round" stroke-miterlimit="22.9256" x1="6.337" y1="3.322" x2="9.115" y2="3.322"/>
</g>
</svg>
