<?xml version="1.0" encoding="utf-8"?>
<!DOCTYPE svg PUBLIC "-//W3C//DTD SVG 1.1//EN" "http://www.w3.org/Graphics/SVG/1.1/DTD/svg11.dtd">
<svg version="1.1" id="_x31_" xmlns="http://www.w3.org/2000/svg" xmlns:xlink="http://www.w3.org/1999/xlink" x="0px" y="0px"
	 width="12.756px" height="11.339px" viewBox="0 0 12.756 11.339" enable-background="new 0 0 12.756 11.339" xml:space="preserve">
<path fill-rule="evenodd" clip-rule="evenodd" stroke="#000000" stroke-width="0.0312" stroke-miterlimit="22.9256" d="M7.309,0.483
	c0.06-0.03,0.137-0.053,0.203-0.074c0.171-0.055,0.373-0.063,0.463-0.09c0.059-0.017,0.107-0.074,0.164-0.1
	C8.262,0.162,8.474,0.115,8.54,0.271c0.03,0.071,0.031,0.156,0.002,0.225c-0.034,0.08-0.065,0.089-0.177,0.088
	C7.991,0.582,8.14,0.445,7.666,0.564C7.312,0.653,7.169,0.731,7.032,1.037C6.919,1.29,6.891,1.645,6.93,2.007
	c0.041,0.379,0.06,0.581,0.137,0.97c0.104,0.524,0.251,1.009,0.417,1.508c0.019,0.055,0.06,0.156,0.064,0.212h0.088l0.08,0.247
	C7.82,5.256,8.114,6.208,8.247,6.427c0.23,0.383,0.619,0.671,1.095,0.479c0.501-0.202,0.634-0.766,0.789-1.223
	c0.03-0.089,0.058-0.16,0.088-0.252l0.205-0.626c0.015-0.046,0.021-0.098,0.062-0.11c0.091-0.028,0.047,0.036,0.124-0.194
	c0.03-0.091,0.055-0.169,0.081-0.258l0.291-1.055c0.086-0.348,0.156-0.763,0.188-1.158c0.004-0.053-0.003-0.105,0.004-0.159
	c0.043-0.312-0.02-0.718-0.182-0.97c-0.099-0.154-0.195-0.217-0.38-0.287c-0.086-0.032-0.472-0.13-0.562-0.094
	C9.913,0.577,9.614,0.658,9.549,0.483C9.461,0.248,9.655,0.059,9.984,0.236l0.097,0.066c0.064,0.038,0.538,0.067,0.795,0.224
	c0.294,0.179,0.438,0.539,0.48,0.866l0.016,0.312c0,0.235-0.055,0.731-0.088,0.931c-0.032,0.191-0.072,0.379-0.11,0.557
	c-0.053,0.246-0.346,1.34-0.456,1.569c0.033,0.008,0.037,0.012,0.063,0.025c0,0.132-0.467,1.469-0.553,1.66
	c-0.121,0.27-0.312,0.503-0.546,0.675c-0.135,0.098-0.225,0.11-0.31,0.295C9.269,7.636,9.271,7.802,9.271,8.119
	c0,0.08-0.014,0.104-0.013,0.188c0.003,0.312-0.11,1.064-0.24,1.356c-0.113,0.255-0.17,0.433-0.332,0.676
	c-0.073,0.11-0.178,0.241-0.273,0.33c-1.131,1.042-2.716,0.419-3.064-0.969c-0.202-0.816-0.133-1.729,0.03-2.543
	C5.458,6.766,5.63,6.202,5.636,5.805C5.637,5.73,5.649,5.692,5.648,5.616c-0.002-0.55-0.052-0.99-0.395-1.429
	C4.95,3.799,4.236,3.631,3.77,3.7C3.524,3.736,3.328,3.792,3.15,3.897C2.799,4.14,2.583,4.415,2.466,4.835
	c-0.115,0.416-0.112,0.67-0.113,1.095c0,0.139,0.025,0.26,0.025,0.39c0.364,0.008,0.681,0.601,0.324,0.953
	c-0.213,0.21-0.498,0.261-0.757,0.084c-0.365-0.249-0.315-0.783,0.094-1C1.982,6.116,2.001,5.84,2,5.59l0.03-0.372
	c0.018-0.128,0.036-0.233,0.065-0.35c0.085-0.339,0.2-0.596,0.398-0.86C2.592,3.894,2.637,3.845,2.751,3.75
	c0.625-0.509,1.666-0.542,2.345-0.135c0.497,0.298,0.775,0.787,0.864,1.363C5.982,5.124,6.003,5.39,6.001,5.541L5.975,5.93
	C5.951,6.384,5.725,7.101,5.65,7.631C5.632,7.757,5.624,7.869,5.605,8C5.527,8.552,5.561,9.298,5.747,9.819
	c0.136,0.378,0.38,0.703,0.748,0.874c0.528,0.246,1.141,0.138,1.581-0.196c0.309-0.233,0.521-0.644,0.631-1.005
	C8.826,9.1,8.919,8.594,8.919,8.081c0-0.258,0.01-0.464-0.144-0.674c-0.255-0.351-0.611-0.22-0.951-1.074
	C7.666,5.934,7.54,5.526,7.404,5.117c-0.027-0.082-0.089-0.24-0.096-0.319c0.027-0.018,0.044-0.023,0.063-0.05L7.216,4.274
	C7.033,3.727,6.787,2.768,6.755,2.182C6.75,2.097,6.73,1.98,6.729,1.893c-0.005-0.42,0.008-0.845,0.273-1.174
	C7.077,0.626,7.2,0.537,7.309,0.483z"/>
<path fill-rule="evenodd" clip-rule="evenodd" stroke="#000000" stroke-width="0.0312" stroke-miterlimit="22.9256" d="M3.17,6.861
	c0,0.308-0.131,0.583-0.379,0.752c-0.636,0.434-1.407-0.05-1.407-0.728c0-0.206,0.085-0.421,0.18-0.537
	C1.632,6.265,1.656,6.241,1.74,6.173c0.088-0.072,0.162-0.09,0.235-0.129c0,0.082,0.013,0.122,0.013,0.213
	C1.8,6.301,1.585,6.597,1.585,6.849v0.075c0,0.335,0.32,0.654,0.654,0.654c0.158,0,0.188-0.003,0.329-0.061
	c0.058-0.023,0.154-0.091,0.197-0.131C3.103,7.068,3.027,6.413,2.518,6.23C2.487,6.219,2.432,6.208,2.403,6.194
	C2.382,6.106,2.39,6.111,2.39,6.006c0.2,0,0.415,0.139,0.544,0.273C3.051,6.399,3.17,6.628,3.17,6.861z"/>
</svg>
