<?xml version="1.0" encoding="utf-8"?>
<!DOCTYPE svg PUBLIC "-//W3C//DTD SVG 1.1//EN" "http://www.w3.org/Graphics/SVG/1.1/DTD/svg11.dtd">
<svg version="1.1" id="_x31_" xmlns="http://www.w3.org/2000/svg" xmlns:xlink="http://www.w3.org/1999/xlink" x="0px" y="0px"
	 width="12.756px" height="11.339px" viewBox="0 0 12.756 11.339" enable-background="new 0 0 12.756 11.339" xml:space="preserve">
<g>
	<g>
		<path fill-rule="evenodd" clip-rule="evenodd" d="M2.078,2.601h6.624C8.703,3.067,8.761,7.17,8.671,7.255
			C8.572,7.347,4.865,7.292,4.423,7.293C3.932,7.294,3.44,7.296,2.948,7.297C2.64,7.298,2.436,7.286,2.132,7.23
			c-0.118-0.581-0.054-2.318-0.054-3.02C2.078,3.675,2.078,3.138,2.078,2.601L2.078,2.601z M8.988,4.372l0.037,3.14
			c-0.394,0.026-0.572,0.01-0.9,0.002C7.771,7.506,7.559,7.52,7.479,7.556c-0.087,0.039-0.03,0.11-0.056,0.399
			C6.747,7.982,6.082,7.974,5.407,7.971C4.493,7.968,4.583,8.143,4.499,7.527C4.152,7.511,3.956,7.493,3.609,7.57
			C3.549,7.883,3.554,8.002,3.6,8.316c0.26,0.045,0.437,0.055,0.7,0.057C5.491,8.38,6.682,8.378,7.873,8.374
			c0.791-0.002,2.054,0.057,2.786-0.047c0.03-0.197,0.043-0.338,0.048-0.538c0.027-1.336-0.006-2.757-0.006-4.103H8.988V4.372
			L8.988,4.372z M10.854,7.392L8.997,5.521L10.854,7.392L10.854,7.392z M8.188,2.145C8.275,2.021,8.157,2.03,8.531,2.03
			c0.173,0,0.158,0.067,0.171,0.229C8.396,2.259,8.32,2.325,8.188,2.145L8.188,2.145z M2.021,2.145
			C2.088,2.049,2.029,2.03,2.192,2.03c1.235,0,1.342-0.118,1.371,0.229L2.358,2.265C2.063,2.258,2.139,2.306,2.021,2.145
			L2.021,2.145z M1.792,1.859c0,0.586-0.03,5.391,0.024,5.526c0.105,0.261,0.948,0.057,1.425,0.205
			c0.097,1.302-0.058,1.063,1.404,1.072c0.635,0.006,6.183,0.144,6.291-0.103c0.009-0.02-0.007-4.693-0.007-5.16
			c0.008-0.793,0.296-0.627-1.941-0.627c0-0.566,0.105-1.085-0.229-1.085H1.964C1.833,1.688,1.792,1.728,1.792,1.859z"/>
	</g>
	<path fill-rule="evenodd" clip-rule="evenodd" d="M1.393,8.313C1.391,7.37,1.291,2.24,1.455,1.745
		C1.636,1.2,2.616,1.319,3.111,1.321c2.551,0.01,5.096,0.024,7.647,0.024c0.346,0,0.57,0.229,0.57,0.628v6.453
		c0,0.223-0.218,0.514-0.399,0.514H1.907C1.556,8.94,1.393,8.669,1.393,8.313L1.393,8.313z M1.907,9.454h8.909
		c0.307,0,0.604-0.166,0.753-0.332c0.175-0.193,0.275-0.454,0.275-0.81V1.917c0-0.388-0.215-0.693-0.446-0.868
		c-0.317-0.241-0.701-0.186-0.987-0.167C8.145,0.886,5.965,0.919,3.694,0.855C3.159,0.84,1.562,0.75,1.192,1.169
		C0.881,1.523,0.911,2.268,0.92,2.716c0.007,0.229,0.014,0.455,0.016,0.685l0,4.169c0,0.425-0.079,1.033,0.091,1.336
		C1.184,9.186,1.495,9.454,1.907,9.454z"/>
	<path fill-rule="evenodd" clip-rule="evenodd" d="M2.535,6.656v0.229h2.912c0-0.499-0.01-0.975-0.25-1.406
		C4.971,5.074,4.808,5.072,4.419,4.886C4.364,5.124,4.285,5.397,4.134,5.571c0-0.388,0.072-0.408-0.171-0.571
		C3.8,5.244,3.848,5.183,3.848,5.571C3.649,5.425,3.674,5.118,3.563,4.886c-0.23,0.11-0.237,0.067-0.452,0.234
		C2.672,5.46,2.535,6.046,2.535,6.656z"/>
	<path fill-rule="evenodd" clip-rule="evenodd" d="M3.563,10.426c0.59,0.137,4.403,0.057,5.311,0.057
		c0.174,0,0.23-0.055,0.343-0.114c-0.059-0.25-0.223-0.471-0.286-0.742H3.848C3.725,9.81,3.569,10.127,3.563,10.426z"/>
	<path fill-rule="evenodd" clip-rule="evenodd" d="M3.277,3.572c0,0.466,0.299,1.159,0.693,1.183
		c0.571,0.034,1.343-1.811-0.064-1.811C3.598,2.944,3.277,3.275,3.277,3.572z"/>

		<line fill-rule="evenodd" clip-rule="evenodd" fill="none" stroke="#FFFFFF" stroke-width="0.3767" stroke-linecap="round" stroke-miterlimit="22.9256" x1="2.119" y1="2.145" x2="3.792" y2="2.145"/>

		<line fill-rule="evenodd" clip-rule="evenodd" fill="none" stroke="#FFFFFF" stroke-width="0.2398" stroke-linecap="round" stroke-miterlimit="22.9256" x1="7.669" y1="2.145" x2="8.733" y2="2.145"/>

		<line fill-rule="evenodd" clip-rule="evenodd" fill="none" stroke="#FFFFFF" stroke-width="0.1089" stroke-linecap="round" stroke-miterlimit="22.9256" x1="9.898" y1="3.248" x2="10.7" y2="3.248"/>

		<line fill-rule="evenodd" clip-rule="evenodd" fill="none" stroke="#000000" stroke-width="0.3767" stroke-linecap="round" stroke-miterlimit="22.9256" x1="5.593" y1="3.676" x2="8.401" y2="3.676"/>

		<line fill-rule="evenodd" clip-rule="evenodd" fill="none" stroke="#000000" stroke-width="0.3767" stroke-linecap="round" stroke-miterlimit="22.9256" x1="5.593" y1="4.27" x2="8.401" y2="4.27"/>

		<line fill-rule="evenodd" clip-rule="evenodd" fill="none" stroke="#000000" stroke-width="0.2923" stroke-linecap="round" stroke-miterlimit="22.9256" x1="6.222" y1="6.051" x2="8.401" y2="6.051"/>

		<line fill-rule="evenodd" clip-rule="evenodd" fill="none" stroke="#000000" stroke-width="0.2923" stroke-linecap="round" stroke-miterlimit="22.9256" x1="6.222" y1="6.645" x2="8.401" y2="6.645"/>

		<line fill-rule="evenodd" clip-rule="evenodd" fill="none" stroke="#000000" stroke-width="0.2925" stroke-linecap="round" stroke-miterlimit="22.9256" x1="8.205" y1="7.848" x2="10.385" y2="7.848"/>
</g>
</svg>
