<?xml version="1.0" encoding="utf-8"?>
<!-- Generator: Adobe Illustrator 16.0.0, SVG Export Plug-In . SVG Version: 6.00 Build 0)  -->
<!DOCTYPE svg PUBLIC "-//W3C//DTD SVG 1.1//EN" "http://www.w3.org/Graphics/SVG/1.1/DTD/svg11.dtd">
<svg version="1.1" id="_x31_" xmlns="http://www.w3.org/2000/svg" xmlns:xlink="http://www.w3.org/1999/xlink" x="0px" y="0px"
	 width="14.173px" height="14.173px" viewBox="0 0 14.173 14.173" enable-background="new 0 0 14.173 14.173" xml:space="preserve">
<path fill-rule="evenodd" clip-rule="evenodd" d="M5.909,12.41c-0.169-0.212-0.836-1.192-0.417-1.392
	c0.591-0.28,1.436-0.596,2.068-0.374c0.151,0.055,1.275,0.403,1.259,0.49c-0.06,0.315-0.802,1.425-1.122,1.688
	C6.973,13.419,6.429,13,5.909,12.41L5.909,12.41z M3.167,10.572c0.686,0.863-1.165,1.258-0.685,0.08
	C2.628,10.295,2.92,10.413,3.167,10.572L3.167,10.572z M4.318,10.189C4.267,9.905,4.226,9.556,4.165,9.285
	C4.047,8.756,3.123,7.844,2.741,7.689c-0.605-0.244-1.678,2.647-0.655,2.377c0.926-0.244,1.051-0.496,1.853,0.422
	C4.234,10.914,4.404,10.602,4.318,10.189L4.318,10.189z M12.748,9.163c-1.36,0.16-0.351-1.517,0.112-0.8
	c0.094,0.146,0.124,0.578,0.021,0.719L12.748,9.163L12.748,9.163z M12.334,9.938l0.009-0.057c-0.512-0.303-0.976-0.521-0.957-1.264
	c0.005-0.211,0.579-1.031,0.071-0.988c-0.196,0.017-0.997,0.777-1.14,0.884C9.896,8.825,9.893,9.41,9.799,9.916
	c-0.027,0.147-0.176,0.604-0.179,0.623c0.392,0.296,0.966,0.243,1.423,0.161C11.721,10.578,12.002,10.456,12.334,9.938L12.334,9.938
	z M5.652,9.08l0.223,0.106c0.758,0.365,2.386,1.28,3.2,1.29c0.157-1.67,0.793-1.274-0.853-0.611
	C8.161,9.749,8.064,9.589,8.058,9.457C8.042,9.131,9.292,8.655,9.414,8.425c0.032-0.063-0.005-2.528-0.016-2.802
	c-1.339-0.82-2.12-1.276-3.627-1.786c-0.634-0.214-0.639-0.365-0.837,0.27c-0.2,0.642-0.319,0.807,0.153,0.511
	c0.21-0.131,0.996-0.546,0.925,0.074c-0.017,0.145-2.344,1.7-2.824,2.28C3.094,7.269,3.653,7.689,3.906,7.808
	C3.953,7.371,3.952,6.948,4,6.512c0.139-0.045,0.306-0.1,0.447-0.035C4.756,6.62,4.735,8.952,4.785,9.396
	c0.151,0.941,0.069,1.173,0.894,0.952c0.443-0.126,0.795-0.108,0.189-0.449c-0.192-0.1-0.42-0.192-0.596-0.289
	C4.888,9.399,4.896,8.723,5.652,9.08L5.652,9.08z M8.108,4.149c1.155,0.618,1.986,1.345,3.004,2.144
	c-0.095,0.152-0.239,0.396-0.457,0.343c-0.597-0.145-0.548-0.955-0.557,0.559c-0.001,0.307-0.131,0.861,0.092,0.643
	c0.748-0.731,2.974-2.742,1.948-3.904c-0.668-0.756-1.634-0.529-2.519-0.448c0.169,0.447,0.212,0.601,0.207,1.09
	C9.257,4.594,9.22,4.678,9.142,4.203C9.028,3.509,9.239,3.45,8.433,3.752C7.871,3.952,7.65,3.913,8.108,4.149L8.108,4.149z
	 M2.758,6.426C2.522,6.602,2.644,6.576,2.303,6.151C1.307,4.805,1.378,3.479,3.296,3.402c1.23-0.049,1.115,0.335,0.845,1.412
	C3.943,5.603,3.38,5.947,2.758,6.426L2.758,6.426z M8.593,3.099c-2.198,0.717-1.373,0.463-3.3-0.082
	c0.26-0.766,0.494,0.081,1.249-0.809c0.296-0.349,0.24-0.761,0.258-1.19C7.775,1.05,8.174,1.584,8.598,2.437
	c0.055,0.11,0.251,0.496,0.154,0.598L8.593,3.099L8.593,3.099z M5.402,1.993C5.567,2.052,5.95,2.144,6.03,1.917
	C6.542,0.467,4.458,1.04,5.402,1.993L5.402,1.993z M1.479,10.671c0.448,0.7,0.779,1.696,1.95,1.131
	c0.396-0.191,1.087-0.955,1.36-0.179c0.31,0.882,1.342,2.275,2.436,2.1l0.515-0.165c0.99-0.562,1.235-1.316,1.683-2.305
	c0.896,0.04,2.236,0.255,2.948-0.42c0.381-0.361,0.513-0.383,0.556-0.902c0.014-0.156,1.335-0.935,0.479-1.934
	c-0.647-0.754-1.262,0.063-1.499-1.091c0.594-0.391,1.106-1.754,1.085-2.381c-0.048-1.379-1.332-1.741-2.488-1.734
	c-1.921,0.073-0.72-0.188-2.143-1.753C7.527,0.121,7.062,0.548,5.95,0.46C4.93,0.379,4.295,0.881,4.619,1.946
	c0.338,1.109-0.148,0.853-1.236,0.855C1.897,2.803,1.111,3.26,1.072,4.82c0.09,0.977,1.014,2.047,1.027,2.111
	C2.18,7.33,0.953,8.569,1.054,9.577C1.098,10.016,1.268,10.298,1.479,10.671z"/>
</svg>
